<svg width="832" height="202" viewBox="0 0 832 202" fill="none" xmlns="http://www.w3.org/2000/svg">
    <path d="M730.195 201.68H100.695C87.4526 201.661 74.3435 199.034 62.1163 193.949C49.8892 188.863 38.7833 181.42 29.4329 172.042C10.5489 153.104 -0.038352 127.44 0.000104399 100.695C0.0385608 73.9507 10.6996 48.3169 29.638 29.4329C48.5763 10.5489 74.2407 -0.038352 100.985 0.000104399H730.195C743.438 0.000104202 756.55 2.60841 768.785 7.67609C781.019 12.7438 792.136 20.1716 801.5 29.5355C810.864 38.8993 818.291 50.0158 823.359 62.2503C828.427 74.4848 831.035 87.5976 831.035 100.84C831.035 114.083 828.427 127.195 823.359 139.43C818.291 151.664 810.864 162.781 801.5 172.145C792.136 181.509 781.019 188.936 768.785 194.004C756.55 199.072 743.438 201.68 730.195 201.68Z" fill="url(#paint0_radial_2931_6122)"/>
    <defs>
        <radialGradient id="paint0_radial_2931_6122" cx="0" cy="0" r="1" gradientUnits="userSpaceOnUse" gradientTransform="translate(449.175 -0.500791) rotate(180) scale(636.96 248.414)">
            <stop offset="0.38" stop-color="#FFA5D3"/>
            <stop offset="0.65" stop-color="#AE3CE7"/>
            <stop offset="0.77" stop-color="#8112D0"/>
        </radialGradient>
    </defs>
</svg>
