<svg width="964" height="291" viewBox="0 0 964 291" fill="none" xmlns="http://www.w3.org/2000/svg">
    <path d="M790.656 246.27H161.156C147.914 246.251 134.804 243.624 122.577 238.538C110.35 233.453 99.2443 226.009 89.8939 216.632C71.0099 197.694 60.4226 172.029 60.461 145.285C60.4995 118.541 71.1606 92.9067 90.0989 74.0228C109.037 55.1388 134.702 44.5515 161.446 44.5899H790.656C803.899 44.5899 817.011 47.1983 829.246 52.2659C841.48 57.3336 852.597 64.7614 861.961 74.1253C871.325 83.4892 878.752 94.6057 883.82 106.84C888.888 119.075 891.496 132.187 891.496 145.43C891.496 158.672 888.888 171.785 883.82 184.02C878.752 196.254 871.325 207.371 861.961 216.735C852.597 226.098 841.48 233.526 829.246 238.594C817.011 243.662 803.899 246.27 790.656 246.27Z" fill="url(#paint0_radial_2931_6029)"/>
    <path d="M939.996 191.06C934.356 192.45 933.696 198.15 931.826 201.97C925.826 214.34 917.826 225.37 910.126 236.63C908.816 238.55 907.636 240.56 905.006 240.86C904.056 238.24 907.586 237.21 907.136 234.3C901.256 237.13 896.616 235.17 893.136 230.3C890.516 226.58 894.776 224.93 896.006 222.36C902.416 216.25 906.576 208.14 913.616 202.58C914.043 202.374 914.504 202.245 914.976 202.2C916.906 202.12 917.746 203.63 918.896 204.78C922.066 207.94 925.446 207.78 927.166 203.72C929.106 199.18 932.416 195.39 933.886 190.66C934.049 190.233 934.242 189.819 934.466 189.42C936.016 187.48 935.536 185.13 935.766 182.92C935.84 182.233 936.011 181.559 936.276 180.92C936.396 180.61 936.676 180.32 936.686 180.03C936.686 168.71 945.476 161.54 949.986 152.35C950.566 151.18 951.456 150.18 951.986 148.98C953.686 146.48 953.076 144.11 951.846 141.59C949.046 135.8 944.756 130.98 941.636 125.4C939.546 121.92 938.786 117.94 937.936 114.12C935.486 103.2 930.996 93.1202 926.246 83.0702C922.026 74.3602 915.516 67.2202 910.026 59.3802C905.814 53.2063 900.766 47.6467 895.026 42.8602C885.566 35.1802 876.286 27.0302 864.446 22.8602C853.776 17.4302 842.346 14.0402 830.986 10.4602C828.386 8.56022 825.386 9.35022 822.516 9.22022C820.7 9.36373 818.878 9.03653 817.226 8.27022C814.436 6.65022 811.366 7.27022 808.416 7.27022C670.136 7.21689 531.869 7.18356 393.616 7.17022C390.666 7.17022 387.616 7.85022 384.826 6.17022C383.536 4.03022 384.876 3.17022 386.646 2.65022C388.289 2.30902 389.972 2.20129 391.646 2.33022C426.193 2.33022 460.736 2.33022 495.276 2.33022C499.056 2.33022 502.846 2.97022 506.206 2.25022C504.596 1.60022 502.206 3.59022 500.316 1.72022C499.886 0.330222 706.096 0.590222 804.996 0.890222C812.326 0.890222 819.786 0.350222 827.106 1.89022C827.216 2.51022 827.206 3.46022 827.986 3.40022C837.106 2.64022 844.776 7.49022 853.116 9.72022C854.766 11.5302 857.506 9.91022 859.176 11.6402C860.706 13.6402 863.546 11.8202 865.096 13.7102C871.836 16.3002 878.096 20.3502 883.676 24.3702C894.996 32.5002 906.046 41.0602 914.536 52.7702C920.016 60.3402 925.586 67.8802 930.296 75.8902C932.706 80.0002 933.976 84.8902 936.076 89.3802C938.476 90.9802 937.466 93.8802 938.606 95.9602C940.726 97.6402 939.166 100.63 940.936 102.44C941.246 103.44 941.556 104.44 941.856 105.44C942.496 107.29 941.956 109.44 943.436 111.08C943.869 112.112 944.084 113.222 944.066 114.34C947.266 120.34 950.396 126.26 955.286 131.34C963.286 139.64 962.676 150.52 955.696 159.87C951.426 165.59 947.806 171.78 942.966 177.1C940.966 180.3 942.396 183.84 941.966 187.19C941.666 188.66 942.636 190.77 939.996 191.06Z" fill="#281A16"/>
    <path d="M941.108 187.329C941.928 183.959 938.777 179.869 942.967 177.109V187.059C942.748 187.329 942.434 187.506 942.09 187.556C941.746 187.606 941.395 187.525 941.108 187.329Z" fill="#321E16"/>
    <path d="M865.053 13.759C862.913 13.539 860.293 14.689 859.133 11.689C861.323 11.749 863.873 10.799 865.053 13.759Z" fill="#837972"/>
    <path d="M859.13 11.6917C857 11.4117 854.31 12.8717 853.07 9.77166C855.24 10.0017 857.91 8.55166 859.13 11.6917Z" fill="#817771"/>
    <path d="M942.7 105.6L942.82 111.36C939.65 109.84 940.89 107.61 941.82 105.43C942.12 105.442 942.417 105.499 942.7 105.6Z" fill="#321E16"/>
    <path d="M846.103 276.731C843.103 280.161 838.473 279.021 834.713 280.351C829.303 282.271 823.013 281.921 817.413 283.051C801.883 286.221 786.413 284.511 770.903 284.531C593.476 284.731 416.046 284.767 238.613 284.641C199.023 285.781 167.753 286.641 132.233 282.751C128.693 282.661 125.643 281.071 122.313 280.391C112.163 278.391 102.573 274.251 92.9531 270.391C92.4831 270.201 92.2831 269.391 91.9531 268.801C92.2383 268.389 92.6219 268.056 93.0691 267.83C93.5162 267.605 94.0127 267.495 94.5131 267.511C99.0231 267.511 101.853 265.151 103.963 261.421C105.113 259.371 106.763 257.711 109.403 257.591C117.763 259.741 126.343 260.751 134.773 262.491C137.232 262.921 139.728 263.099 142.223 263.021C360.816 263.021 579.41 262.994 798.003 262.941C809.503 262.941 820.683 260.021 831.593 256.431C835.383 255.191 839.213 254.061 842.913 252.591C843.423 252.244 843.982 251.977 844.573 251.801C845.976 251.389 847.483 251.533 848.783 252.201C849.043 252.411 849.443 252.791 849.353 252.921C846.563 257.061 849.033 262.191 846.723 266.471C846.284 267.363 846.092 268.357 846.167 269.35C846.243 270.342 846.583 271.295 847.153 272.111C848.233 273.931 848.133 275.581 846.103 276.731Z" fill="#523128"/>
    <path d="M24.0594 97.3815C27.3194 89.1915 30.2994 80.7815 35.1894 73.4415C41.3294 64.1915 47.4694 54.8215 56.1894 47.6515C62.8894 47.2515 67.5994 43.1015 72.3994 39.1015C77.6294 34.7615 84.1394 32.9515 90.2194 30.3015C93.3094 28.9515 95.5994 30.2215 97.2194 33.1315C99.8594 37.8015 99.7494 40.5515 96.5994 43.3815C94.0794 45.6415 90.4494 46.8715 89.6994 50.7815C87.8394 56.2315 83.3594 59.7815 79.1094 62.8515C73.7094 66.7815 69.1094 71.4215 64.3794 75.9615C63.3674 77.052 62.1555 77.9381 60.8094 78.5715C58.1094 79.3015 57.2394 81.3215 57.0794 83.8515C56.6128 85.4104 55.7273 86.8113 54.5194 87.9015C51.7494 89.7315 51.1994 92.6315 50.8294 95.6115C50.2499 97.7278 49.4939 99.7917 48.5694 101.782C47.1294 104.782 45.3094 107.012 41.5094 106.782C38.6794 106.642 37.9294 107.782 39.7594 110.272C42.2194 113.662 44.0194 117.332 43.1694 121.742C39.5294 128.902 40.3194 137.182 37.4194 144.522C37.1794 145.132 36.9494 145.752 36.6494 146.342C35.2594 148.272 33.9794 150.342 31.2394 150.572C23.2394 151.142 15.1494 150.782 7.10938 150.792C5.2969 150.924 3.50386 150.347 2.10938 149.182C2.87937 142.662 7.63937 138.092 10.6094 132.702C13.0894 128.202 15.7594 123.802 17.9294 119.132C20.4194 116.992 17.9294 113.512 20.0394 111.282L20.1794 109.422C21.8894 107.742 20.2594 105.012 22.0994 103.422C23.9994 101.772 22.2994 99.0015 24.0594 97.3815Z" fill="#C19279"/>
    <path d="M31.9981 149.34C34.3481 149.58 33.7581 146.06 35.9981 146.22C37.9709 148.686 39.0934 151.724 39.1981 154.88C39.0081 165.42 42.7281 174.88 46.5281 184.36C47.2513 186.282 48.0758 188.165 48.9981 190C49.1237 190.482 49.1521 190.984 49.0817 191.476C49.0113 191.969 48.8435 192.443 48.5881 192.87C46.2281 193.46 45.6781 194.54 46.5881 197.05C49.9981 206.42 53.9081 215.46 60.8581 222.86C61.8581 223.94 63.0081 225.01 62.4881 226.75C59.4231 229.158 56.492 231.732 53.7081 234.46C52.0881 236.11 50.2381 237.04 48.2781 234.81C39.7481 224.5 32.1481 213.55 27.4181 201C24.6981 193.82 20.8481 186.94 20.0881 179.09C18.2881 176.35 18.8881 173.8 20.7781 171.42C24.0581 167.3 26.3881 162.54 29.6981 158.42C31.9281 155.74 31.7881 152.52 31.9981 149.34Z" fill="#946249"/>
    <path d="M48.2266 234.828C50.6766 236.008 51.9666 234.328 53.6066 232.938C56.2366 230.728 57.6766 226.798 61.9866 226.938C63.2566 225.868 64.2066 226.588 64.7966 227.638C66.2766 230.278 68.7966 231.998 70.6466 234.268C73.4666 238.398 77.7966 240.898 81.4766 244.118C87.4766 248.868 95.0166 250.258 101.677 253.528C103.317 254.338 105.087 254.878 106.677 255.738C107.877 256.368 109.117 257.108 107.977 258.788C107.455 259.033 106.987 259.377 106.599 259.803C106.211 260.228 105.911 260.727 105.717 261.268C103.05 267.268 98.4532 269.788 91.9266 268.828C86.6966 268.128 82.6866 264.578 78.7166 261.888C67.9166 254.588 57.4866 246.608 48.9166 236.598C48.5952 236.048 48.3624 235.451 48.2266 234.828Z" fill="#785246"/>
    <path d="M896.876 222.55C896.736 223.17 896.796 223.98 896.416 224.39C894.976 225.97 891.616 227.2 894.216 229.75C896.816 232.3 898.966 236.18 903.746 234.03C905.476 233.25 908.006 231.45 909.036 233.03C910.326 235.03 908.236 237.22 906.516 238.86C905.963 239.482 905.464 240.151 905.026 240.86C897.736 247.22 891.276 254.54 883.026 259.86C881.396 260.91 880.176 262.62 878.026 262.79C877.486 261.73 878.156 260.93 878.746 259.86C875.646 260.86 872.746 261.86 870.346 258.63C867.586 254.86 867.036 250.16 869.176 246.63C870.016 245.25 871.386 244.18 871.696 242.47C871.842 241.777 872.074 241.105 872.386 240.47C876.306 236.53 879.946 232.26 884.846 229.47C887.186 228.13 888.846 226.07 890.786 224.32C892.546 222.72 894.256 221.07 896.876 222.55Z" fill="#321E16"/>
    <path d="M872.997 242.749C873.117 244.219 872.157 245.119 871.297 246.139C869.765 247.857 868.949 250.097 869.018 252.398C869.087 254.699 870.035 256.886 871.667 258.509C874.477 261.509 876.997 258.939 879.527 257.609C880.23 257.328 880.956 257.107 881.697 256.949C881.607 259.949 878.757 260.709 878.057 262.759C869.337 268.939 859.137 272.099 849.567 276.529C848.567 276.979 847.267 276.679 846.107 276.729C846.537 275.539 847.857 274.009 846.387 273.169C842.937 271.169 844.567 268.479 845.277 266.219C846.277 263.059 847.707 260.219 846.067 256.769C844.707 253.909 849.677 255.439 849.117 252.879C849.282 252.288 849.563 251.736 849.944 251.255C850.325 250.775 850.799 250.375 851.337 250.079C855.997 248.079 860.287 245.249 865.117 243.579C867.747 243.439 870.117 240.639 872.997 242.749Z" fill="#44271F"/>
    <path d="M31.9973 149.342C35.2273 152.522 33.2173 155.642 31.5173 158.342C28.8276 162.766 25.8408 167.002 22.5773 171.022C21.6225 172.118 20.9049 173.4 20.4695 174.787C20.0341 176.174 19.8903 177.637 20.0473 179.082C16.3473 176.442 15.3873 171.892 12.9873 168.372C9.4473 163.182 6.6073 157.472 2.6273 152.502C2.30017 152.02 2.08235 151.472 1.98908 150.897C1.8958 150.321 1.92933 149.733 2.0873 149.172L31.9973 149.342Z" fill="#764B39"/>
    <path d="M20.0631 111.309C19.4631 113.959 22.0631 117.449 17.9531 119.159C18.7831 116.579 16.5731 113.179 20.0631 111.309Z" fill="#785B4B"/>
    <path d="M923.112 227C923.062 229.84 921.352 231.45 918.992 232.58C919.922 230.35 920.002 227.56 923.112 227Z" fill="#321E16"/>
    <path d="M928.867 215C928.217 216.89 930.637 219.8 926.977 220.71C927.477 218.72 925.617 216 928.867 215Z" fill="#321E16"/>
    <path d="M22.1191 103.398C21.7391 105.498 23.4291 108.248 20.1991 109.398C20.1491 108.038 20.0991 106.678 20.0391 105.318C20.2391 104.188 20.7991 103.408 22.1191 103.398Z" fill="#6C5144"/>
    <path d="M831.18 9.68882C837.18 9.47882 842.38 12.6188 847.93 14.1688C853.93 15.8188 859.39 19.1688 865.09 21.6988C865.45 24.3888 863.27 24.3688 861.63 24.9688C857.98 26.2988 857.5 27.5488 860.08 30.1588C870.45 40.6488 879.08 52.6488 889.4 63.2188C895.4 69.3888 899.4 77.1588 904 84.4388C905.94 87.5188 908.3 90.3288 909.85 93.6488C911.65 97.9288 914.07 102.029 913.65 106.929C912.43 108.719 909.81 106.929 908.65 108.829C904.78 108.379 905.16 104.659 904.29 102.409C902.68 98.2488 900.57 94.2388 899.49 89.8988C898.21 84.7988 893.28 82.7788 890.6 78.8988C889.655 75.5278 887.7 72.5267 885 70.2988C879.07 65.0488 874.34 58.4988 867.54 54.1688C867.102 53.9144 866.777 53.5037 866.631 53.0193C866.484 52.535 866.527 52.0131 866.75 51.5588C868 50.3388 868.36 49.1488 866.75 47.8588C862.9 44.7088 859.84 40.8588 856.42 37.2588C851.94 32.5888 845.78 30.8088 839.74 29.0588C836.557 28.1768 833.45 27.0398 830.45 25.6588C825.99 24.4888 821.51 25.4088 817.04 25.3988C790.14 25.3988 763.233 25.3988 736.32 25.3988C733.85 25.3988 731.32 25.5988 728.96 24.5788C726.43 22.1588 728.3 21.1788 730.43 20.5788C732.876 20.0723 735.387 19.9541 737.87 20.2288C743.77 20.5488 749.4 19.1688 755.04 17.8088C755.891 17.7053 756.703 17.3903 757.402 16.8925C758.101 16.3947 758.664 15.7299 759.04 14.9588C753.212 12.6364 747.012 11.3864 740.74 11.2688C737.44 11.1188 734.03 11.6888 730.89 10.4288C729.69 9.94883 726.53 9.78883 729.06 7.00883C745.85 6.45883 762.64 6.87883 779.42 6.77883C790.42 6.70883 801.36 6.77883 812.33 6.77883C814.33 6.77883 816.33 6.41883 818.13 7.67883L823.02 7.83883C825.48 9.82883 828.8 7.69882 831.18 9.68882Z" fill="#7D5345"/>
    <path d="M913 107.408C913.12 102.348 909.32 98.4083 909 93.4683C907 88.6283 904.22 84.1683 902.76 79.0883C901.965 76.7404 901.965 74.1962 902.76 71.8483C904.71 66.4083 909.34 64.9083 914.19 68.0883C918.51 70.9183 920.5 75.6183 923.54 79.4583C924.54 80.7083 924.95 82.5683 927.07 82.4583C931.07 87.4583 932.52 93.6983 935.07 99.3983C938.8 107.718 939.54 116.938 943.07 125.318C938.295 127.142 934.096 130.212 930.91 134.208C929.517 135.846 928.696 137.892 928.57 140.038C928.41 144.498 929.28 145.388 933.86 145.788C940.363 146.25 946.798 147.397 953.06 149.208C949.06 155.988 945.29 162.888 941.06 169.488C939.39 172.078 937.57 174.128 938.96 177.488C939.59 178.988 938.69 180.368 937.14 181.108C935.05 178.568 935.48 175.198 934.14 172.338C932.07 167.818 930.23 163.248 926.14 160.078C923.76 158.238 923.81 155.078 922.14 152.818C919.04 148.248 918.91 142.688 918.29 137.688C917.1 128.038 914.53 118.748 912.69 109.278C912.609 108.962 912.595 108.633 912.648 108.311C912.702 107.989 912.821 107.681 913 107.408Z" fill="#321E16"/>
    <path d="M926.996 82.4581C926.806 83.2381 926.846 84.4581 926.366 84.6981C925.226 85.3881 924.366 84.0781 924.126 83.4181C923.206 80.1181 920.176 78.2581 918.856 75.2181C917.536 72.1781 914.776 70.0681 912.016 68.2181C911.122 67.5677 910.023 67.2613 908.921 67.3549C907.819 67.4486 906.788 67.9361 906.016 68.7281C903.726 71.1681 902.496 74.1281 903.636 77.7281C905.296 82.9881 908.636 87.7281 908.966 93.3981C905.036 89.3758 901.79 84.738 899.356 79.6681C896.729 74.4293 893.361 69.5963 889.356 65.3181C882.576 58.0781 876.866 49.9181 869.656 43.0581C865.386 38.9881 862.586 33.5981 857.916 29.7681C855.306 27.6281 856.556 24.3281 859.916 23.7181C861.826 23.3781 864.026 23.9781 865.086 21.6281C870.916 21.4181 874.486 25.9581 878.736 28.6281C888.846 34.9781 898.576 42.2581 905.916 51.7281C913.496 61.5881 922.446 70.5681 926.996 82.4581Z" fill="#4A3433"/>
    <path d="M818.213 7.6789L728.213 7.7889C725.543 10.1989 722.213 9.4589 719.153 9.4589C662.586 9.50557 606.019 9.50557 549.453 9.4589C522.173 9.4589 494.893 9.5189 467.613 9.3289C464.46 9.52878 461.299 9.56883 458.143 9.4489C390.283 9.4489 322.419 9.4489 254.553 9.4489C240.093 9.4489 225.623 9.2189 211.163 9.2889C206.72 9.6389 202.256 9.6389 197.813 9.2889C195.923 9.1289 193.083 9.3689 193.813 5.8589C195.973 5.8589 198.123 5.7089 200.283 5.7089H384.593L538.743 5.7789C629.869 5.7789 720.999 5.82224 812.133 5.9089C814.223 5.8789 817.003 4.4889 818.213 7.6789Z" fill="#653E2D"/>
    <path d="M896.879 222.55C895.789 222.9 894.469 222.98 893.639 223.66C886.729 229.33 879.909 235.11 873.069 240.86C868.779 242.46 865.399 241.07 862.609 237.72C863.959 233.77 867.889 232.43 870.609 229.86C873.809 227.74 876.169 224.71 878.919 222.11C882.44 218.648 886.185 215.421 890.129 212.45C896.499 207.86 899.859 200.96 901.559 193.37C902.939 187.23 904.209 186.68 909.279 190.37C910.719 192.05 912.529 193.37 913.719 195.32C914.519 197.86 914.789 200.39 913.509 202.87C908.329 209.72 903.119 216.56 896.879 222.55Z" fill="#A57E6A"/>
    <path d="M952.995 149.21C945.145 150.41 937.775 146.33 929.945 147.12C928.255 147.3 927.405 146.01 927.055 144.32C925.275 135.62 933.895 125.32 943.055 125.32C946.765 130.86 950.815 136.16 953.815 142.2C955.165 145.11 955.085 147.07 952.995 149.21Z" fill="#563224"/>
    <path d="M922.926 153.211C929.106 161.761 937.566 169.161 936.996 181.091C936.996 181.751 936.996 182.411 936.996 183.091C935.076 185.091 936.836 188.091 934.996 190.091C933.536 192.661 931.356 193.531 928.716 192.241C923.716 189.811 919.186 186.881 917.406 181.161C919.886 174.071 919.406 166.701 919.546 159.361C919.566 156.821 919.216 153.821 922.926 153.211Z" fill="#4A2C21"/>
    <path d="M917.829 182.002C920.449 184.402 922.979 186.912 925.709 189.182C928.439 191.452 931.609 192.752 934.989 190.082C934.409 196.252 929.909 200.612 927.339 205.832C925.339 209.902 920.979 209.442 917.989 205.772C917.069 204.652 916.709 203.012 914.849 202.952C912.949 200.652 915.209 197.342 912.949 195.132C912.033 194.806 911.202 194.276 910.52 193.584C909.838 192.891 909.321 192.053 909.009 191.132C906.229 186.582 907.009 184.722 912.079 183.862C913.359 183.652 914.719 183.812 915.779 182.862C916.038 182.578 916.355 182.355 916.709 182.206C917.063 182.058 917.445 181.988 917.829 182.002Z" fill="#321E16"/>
    <path d="M831.182 9.68992C828.492 9.05992 825.072 11.5799 823.102 7.82992C825.812 8.40992 829.182 6.06992 831.182 9.68992Z" fill="#653E2D"/>
    <path d="M913 195.102C917.18 196.852 914.35 200.292 914.9 202.922L913.56 202.852C912.53 200.322 913.32 197.672 913 195.102Z" fill="#6B4F43"/>
    <path d="M934.996 190.051C935.686 187.731 933.326 184.541 936.996 183.051C936.646 185.491 938.086 188.411 934.996 190.051Z" fill="#321E16"/>
    <path d="M193.857 5.81001C194.327 8.15001 196.207 7.62001 197.737 7.66001C202.127 7.76001 206.507 7.80001 210.897 7.86001C215.897 9.29001 221.027 9.29001 226.147 9.25001C242.147 9.11001 258.037 9.43001 273.637 13.36C275.43 13.7263 277.187 14.2517 278.887 14.93C280.287 15.56 281.757 16.42 281.787 18.04C281.817 19.66 280.137 20.35 278.787 20.93C274.937 22.54 270.677 22.64 266.787 24.25C256.277 25.61 245.847 27.9 235.137 26.64C228.344 25.8911 221.474 26.2968 214.817 27.84C210.102 28.7971 205.296 29.2297 200.487 29.13C184.857 29.08 169.237 29.13 153.607 29.13C151.453 29.2891 149.287 29.1613 147.167 28.75C145.237 25.26 142.087 24.68 138.447 25.1C134.277 25.58 131.547 23.59 129.617 20.01C127.797 16.62 131.047 14.65 132.027 11.74C127.677 11.74 123.667 15 119.797 11.69C123.037 8.45001 127.597 8.58001 131.457 8.10001C152.177 5.52001 172.997 5.55001 193.857 5.81001Z" fill="#B06C40"/>
    <path d="M119.823 11.6585C123.283 11.8585 126.663 12.0985 129.913 10.1385C131.063 9.44851 133.453 8.97851 134.353 10.7085C135.053 12.0585 133.663 13.4585 132.613 14.5085C131.383 15.7385 128.953 16.8085 130.433 18.7785C131.913 20.7485 132.633 24.1885 136.433 23.7785C138.893 23.4985 141.433 23.7785 143.883 23.7185C147.443 23.6285 148.053 24.9485 145.883 27.7185C145.578 28.1136 145.179 28.4264 144.723 28.6285C142.003 29.5185 138.903 28.4485 136.343 30.2385C134.563 31.1585 132.343 30.5985 130.693 31.9785C129.813 32.6385 129.023 33.3985 128.163 34.0885C127.781 34.3284 127.371 34.5199 126.943 34.6585C124.633 35.3185 121.863 34.3585 120.023 36.6585C115.393 38.8085 111.273 42.0885 106.023 42.8785C105.108 42.83 104.22 42.5493 103.443 42.063C102.666 41.5766 102.026 40.9006 101.583 40.0985C99.0827 35.3185 96.7727 30.5285 93.0527 26.3785C90.5227 23.5585 93.6827 21.4385 95.9327 19.7285C97.7327 16.7285 101.653 17.9285 103.933 15.7885C105.563 13.9485 108.343 15.6185 109.983 13.7885C113.293 12.9985 116.333 11.2985 119.823 11.6585Z" fill="#D68936"/>
    <path d="M96.0009 19.6797C93.2409 23.1897 92.6209 25.8297 97.2109 28.9897C99.6809 30.6997 100.561 34.8497 101.901 37.9897C102.741 39.9897 103.771 41.4097 106.041 41.6297C106.188 41.7785 106.301 41.9572 106.373 42.1537C106.445 42.3502 106.474 42.5599 106.458 42.7685C106.442 42.9771 106.381 43.1799 106.28 43.363C106.179 43.5461 106.039 43.7052 105.871 43.8297C100.751 47.0997 95.4109 49.9297 89.2509 50.7297C87.8109 49.7297 87.7309 48.6797 89.1609 47.5697C91.2609 45.9597 93.2409 44.1797 95.4309 42.7097C98.3209 40.7697 98.6609 38.6197 97.0009 35.5897C93.8809 29.9197 94.2509 30.6497 88.1609 32.6597C79.2509 35.5997 71.9309 40.7197 65.0709 46.6597C62.0709 49.2597 59.2109 47.8697 56.2109 47.6097C57.4983 45.0904 59.5494 43.0427 62.0709 41.7597C63.4109 40.9497 65.0709 40.6197 65.9609 39.1497C69.8609 33.7397 75.6409 30.2697 81.0809 27.0797C85.7909 24.3797 90.0009 19.9397 96.0009 19.6797Z" fill="#C78B57"/>
    <path d="M24.0602 97.3789C23.7502 99.4889 25.4902 102.269 22.1102 103.379C22.4902 101.299 20.7702 98.5289 24.0602 97.3789Z" fill="#6C5143"/>
    <path d="M110.003 13.7614C108.843 17.0514 106.003 15.3314 103.953 15.7614C105.143 12.4314 107.933 14.1514 110.003 13.7614Z" fill="#714D32"/>
    <path d="M65.9994 39.1914C65.0794 40.6314 65.0894 43.4314 62.1094 41.8014C62.5494 39.6914 64.2694 39.4514 65.9994 39.1914Z" fill="#C19279"/>
    <path d="M108.003 258.79C104.853 254.89 99.7225 254.91 95.7425 252.64C90.6525 249.76 84.4325 249.13 80.0625 244.8C83.7025 244.86 85.0625 241.29 87.8225 239.93C94.0725 241.87 99.3425 245.73 105.143 248.55C113.143 252.45 121.673 254.25 130.423 255.33C160.533 259.06 190.782 257.33 220.952 257.23C307.972 256.95 394.973 256.926 481.953 257.16C588.263 257.43 694.573 257.16 800.883 257.33C803.673 257.33 806.562 257.89 809.182 256.33C819.352 256.01 828.593 251.43 838.523 249.96C840.293 251.09 842.622 251.15 844.112 252.83C840.532 256.77 835.243 257.02 830.703 258.59C813.703 264.43 796.073 264.84 778.253 264.82C566.473 264.666 354.693 264.606 142.913 264.64C131.858 264.609 120.889 262.702 110.473 259C109.662 258.822 108.831 258.752 108.003 258.79Z" fill="#835949"/>
    <path d="M844.149 252.859C842.389 252.299 839.699 253.939 839.039 250.729C839.279 248.059 841.599 247.619 843.449 246.889C846.929 245.519 850.189 243.739 853.519 242.069C854.851 241.586 856.264 241.372 857.679 241.439C859.263 241.318 860.856 241.368 862.429 241.589C864.069 241.959 866.169 242.199 865.109 244.869C860.359 246.619 856.379 250.119 851.209 250.929C849.479 252.559 846.769 250.989 845.089 252.799C844.779 252.829 844.459 252.849 844.149 252.859Z" fill="#AA7D68"/>
    <path d="M845.086 252.799C846.246 249.309 849.086 251.379 851.206 250.929C851.177 251.463 850.942 251.965 850.551 252.329C850.159 252.693 849.641 252.89 849.106 252.879L845.086 252.799Z" fill="#835949"/>
    <path d="M48.0554 101.379C48.2054 103.969 48.2154 106.429 49.5554 108.979C51.3754 112.449 47.6954 117.979 42.0654 121.319C42.4954 116.609 40.3354 112.899 37.5054 109.429C36.1154 107.729 34.8654 105.359 38.3854 105.619C42.6754 105.929 45.6854 104.719 48.0554 101.379Z" fill="#5F3B36"/>
    <path d="M53.9981 87.3984C53.9981 90.7184 52.9281 93.5084 49.8281 95.1984C49.9281 91.8984 50.0981 88.6484 53.9981 87.3984Z" fill="#7A4C4A"/>
    <path d="M60.1699 77.5781C60.3799 80.5781 58.8499 82.4881 56.1099 83.5781C55.6799 80.3281 57.2299 78.4781 60.1699 77.5781Z" fill="#8A5853"/>
    <path d="M47.9993 190.059C48.6655 190.089 49.3162 190.27 49.9031 190.587C50.49 190.904 50.9979 191.349 51.3893 191.889C54.0193 194.729 57.0993 197.409 60.7393 198.199C69.5893 200.129 74.0593 206.809 78.6193 213.399C82.5293 219.039 85.8593 223.329 92.9493 223.849C99.0393 224.289 104.949 229.579 104.029 235.609C102.879 243.529 107.559 250.869 116.349 251.169C121.087 251.271 125.759 252.29 130.109 254.169C133.219 255.589 136.659 254.529 139.939 254.799C142.089 255.969 144.439 255.799 146.759 255.799C171.209 255.799 195.649 255.799 220.099 255.859C221.26 256.012 222.44 255.913 223.559 255.569C235.729 249.819 248.909 250.569 261.749 250.299C284.189 249.759 306.649 250.099 329.099 250.169C341.219 250.169 353.329 248.759 365.419 249.439C392.809 250.969 420.259 248.949 447.639 251.009C453.439 251.449 459.309 251.649 465.059 251.529C481.919 251.179 498.349 255.419 515.189 255.299C524.964 255.174 534.736 255.665 544.449 256.769H802.239C804.899 256.769 807.559 256.769 810.239 256.769C809.799 258.769 808.169 258.579 806.689 258.599C803.689 258.599 800.689 258.649 797.689 258.649C581.269 258.649 364.843 258.569 148.409 258.409C129.189 258.409 110.059 255.159 93.1493 244.519C90.8793 243.089 89.4293 240.009 85.9793 240.859C81.6593 239.589 79.0893 235.719 75.2493 233.719C70.8793 230.589 67.9193 226.069 64.6993 221.999C58.8093 214.539 52.6993 207.099 49.0793 198.089C48.4393 196.479 46.8693 195.089 47.9093 193.089L47.9993 190.059Z" fill="#42251B"/>
    <path d="M47.9167 193.11C53.6723 205.452 61.3814 216.784 70.7467 226.67C72.6067 228.67 73.4467 231.53 76.0267 232.92C77.3867 235.59 76.2167 236.62 73.5967 236.41C72.2725 236.279 71.0182 235.753 69.9967 234.9C66.5067 233.07 64.9367 229.3 61.9967 226.9C56.0061 219.772 51.0414 211.842 47.2467 203.34C46.0667 200.66 46.1967 197.59 44.2467 195.16C43.9376 194.649 43.8339 194.04 43.9564 193.455C44.0789 192.87 44.4185 192.354 44.9067 192.01C46.1567 191.28 46.6467 193.46 47.9167 193.11Z" fill="#B58671"/>
    <path d="M70 234.898C71.67 233.218 75.6 238.398 76 232.898C80.06 234.658 83 237.738 86 240.898C88.93 249.658 82 243.328 80.07 244.768C76.85 241.368 72 239.628 70 234.898Z" fill="#9D7262"/>
    <path d="M865.107 244.87C863.287 240.87 859.577 243.78 856.977 242.66C857.227 239.17 859.777 237.75 862.547 236.52L863.097 236.99C865.807 239.85 869.517 240.14 873.097 240.86C873.097 241.49 873.047 242.12 873.017 242.75C869.997 242 868.147 245.68 865.107 244.87Z" fill="#674B3F"/>
    <path d="M467.547 7.85C524.48 7.85 581.41 7.81667 638.337 7.75C668.297 7.75 698.26 7.75 728.227 7.75C730.597 9.61 733.387 9.91 736.227 9.69C743.227 9.14 750.067 10.69 756.857 12.14C758.857 12.58 761.657 12.98 761.697 15.61C761.697 18.03 759.057 18.22 757.227 18.78C749.462 21.167 741.341 22.1822 733.227 21.78C731.487 21.69 729.037 20.66 728.227 23.6C727.742 24.1729 727.123 24.6183 726.426 24.8972C725.729 25.1761 724.974 25.2801 724.227 25.2C717.627 24.91 711.007 25.52 704.417 24.82C700.993 23.5415 697.349 22.9569 693.697 23.1C638.437 23.1467 583.177 23.1467 527.917 23.1C523.207 23.1 518.497 23.48 516.187 17.84C515.407 15.93 512.987 16.37 511.187 16.38C497.597 16.5 484.487 13.09 471.187 11.09C469.387 10.85 467.527 10.31 467.547 7.85Z" fill="#94522E"/>
    <path d="M871.059 230.872C870.679 229.142 873.639 227.872 872.239 226.482C870.839 225.092 868.789 225.812 867.029 226.482C865.909 226.872 864.459 227.412 863.789 226.362C862.789 224.872 864.569 224.082 865.399 223.172C877.399 209.832 885.699 194.342 892.399 177.792C896.639 167.312 899.989 156.732 901.269 145.472C901.559 142.912 902.859 140.082 905.269 138.772C909.679 136.332 910.269 133.182 909.269 128.502C908.269 124.122 908.759 119.582 907.549 114.962C905.549 107.342 901.549 100.822 898.549 93.8217C896.259 88.6317 891.999 84.3917 891.179 78.5117C900.389 83.0117 901.789 92.4117 905.179 100.592C906.299 103.292 906.179 106.592 909.119 108.442C913.329 113.262 913.219 119.562 914.349 125.252C916.649 136.762 917.029 148.502 916.799 160.252C916.734 165.549 915.746 170.794 913.879 175.752C912.139 180.242 912.979 181.752 916.989 182.912C916.989 185.462 914.989 185.172 913.519 185.042C908.519 184.602 907.349 186.712 909.139 191.042C904.069 188.422 904.539 188.552 903.009 194.382C900.759 202.972 896.309 210.112 888.549 215.382C883.599 218.712 879.779 223.692 875.379 227.862C873.999 229.002 873.249 231.002 871.059 230.872Z" fill="#583426"/>
    <path d="M704.263 23.6197H728.263C761.083 23.6197 793.909 23.673 826.743 23.7797C828.623 23.7797 831.263 22.5197 832.153 25.6797C831.881 26.0851 831.506 26.4109 831.067 26.6235C830.627 26.8362 830.139 26.928 829.653 26.8897C826.443 26.5997 824.233 28.1497 822.363 30.4797C819.103 30.8897 815.843 30.5997 812.583 30.6897C783.363 30.6897 754.143 30.6197 724.933 30.6897C715.933 30.6897 707.023 31.2697 698.063 31.0797C696.063 31.0797 694.063 31.2697 692.163 30.4997C690.723 29.6297 691.033 28.6897 692.163 27.8597C694.069 26.4845 696.442 25.92 698.763 26.2897C704.193 27.0497 709.633 26.4097 714.093 26.6597C710.663 26.6597 706.243 26.9197 701.863 26.5397C699.793 26.3497 696.623 27.0997 696.393 23.3597C699.063 22.0597 701.653 23.1097 704.263 23.6197Z" fill="#9F6A56"/>
    <path d="M916.858 182.89C915.86 182.975 914.858 182.995 913.858 182.95C912.318 182.78 910.338 183.78 909.348 181.95C908.358 180.12 910.458 179.1 911.288 177.8C913.898 173.67 914.138 168.74 914.608 164.3C915.498 155.76 916.008 146.88 914.608 138.5C913.098 129.64 913.098 120.36 909.328 111.9C908.878 110.9 909.098 109.61 909.008 108.45C909.348 107.31 908.548 105.87 909.938 104.93C911.368 105.28 911.108 107.7 912.938 107.46C915.081 113.027 916.564 118.827 917.358 124.74C918.868 134.3 921.028 143.74 922.908 153.26C920.738 154.94 921.238 157.33 921.148 159.6C920.878 167.19 922.298 175.05 917.808 182.02C917.508 182.28 917.188 182.59 916.858 182.89Z" fill="#A37864"/>
    <path d="M823.157 29.6002C822.227 27.0402 822.277 25.2602 825.877 25.6002C827.962 25.7202 830.052 25.7202 832.137 25.6002C841.337 27.5402 850.897 29.6002 857.677 36.1802C861.944 40.1558 865.953 44.4012 869.677 48.8902C872.587 52.5602 868.187 50.8002 867.097 51.5002C859.265 44.9357 850.459 39.629 840.997 35.7702C839.577 33.6802 836.667 35.5702 835.207 33.6002C833.207 31.6802 830.137 33.6702 828.207 31.6002C826.887 30.0002 824.347 31.4302 823.157 29.6002Z" fill="#AD806C"/>
    <path d="M704.259 23.6181L696.259 23.7081C694.589 25.4981 692.339 25.3781 690.259 25.3781C658.029 25.3781 625.799 25.5281 593.569 25.3781C572.929 24.9181 552.299 25.0881 531.659 25.3281C522.659 25.4281 513.659 25.3281 504.709 25.4381C453.789 26.1715 402.872 26.4081 351.959 26.1481C349.963 26.1116 347.972 26.3437 346.039 26.8381C323.869 27.9381 301.719 25.8381 279.539 26.1881C275.169 26.2481 270.619 25.5381 266.839 22.7181C271.509 20.9481 276.689 20.7781 282.079 18.0181C275.559 14.6881 269.239 13.8081 263.019 12.8181C250.429 10.8181 237.719 10.6281 225.019 10.7181C221.07 10.5983 217.131 10.2645 213.219 9.71813C212.725 9.63297 212.26 9.42546 211.867 9.11452C211.474 8.80359 211.165 8.39914 210.969 7.93813C276.209 7.89813 341.452 7.86146 406.699 7.82812C427.009 7.82812 447.309 7.88812 467.619 7.92812C468.429 9.43812 469.769 9.75813 471.379 9.84813C482.119 10.4481 492.379 14.1881 503.189 14.5081C507.329 14.6381 511.479 14.6681 515.629 14.8381C517.169 14.8981 519.629 14.5781 518.629 17.2681C517.259 21.0081 520.039 21.1081 522.119 21.6481C523.598 21.8771 525.099 21.9208 526.589 21.7781C582.982 21.7781 639.369 21.7781 695.749 21.7781C698.729 21.6981 701.709 21.6881 704.259 23.6181Z" fill="#A85E31"/>
    <path d="M266.786 22.6914C282.336 25.9514 298.126 23.9114 313.786 24.8714C322.046 25.3814 330.186 26.0714 338.436 24.8214C340.776 24.4614 343.306 25.3514 345.746 25.6814C355.356 24.4814 364.956 25.4614 374.556 25.9314C376.706 26.0314 378.866 26.1814 381.016 26.1814C422.446 26.2514 463.866 26.1214 505.296 26.0014C508.446 26.0014 511.646 25.7314 514.736 26.4814C516.686 26.9414 519.276 26.8114 519.496 29.8314C517.086 31.8314 514.156 31.3114 511.386 31.3714C494.446 31.7214 477.506 30.7914 460.566 31.3014C434.286 31.5614 408.006 31.2114 381.726 31.1514C329.812 31.0514 277.902 31.0414 225.996 31.1214C201.576 31.1214 177.146 31.1214 152.726 31.1214C150.266 31.1214 147.726 31.5214 145.376 30.3214C145.163 30.19 144.982 30.0147 144.843 29.8074C144.704 29.6 144.611 29.3653 144.57 29.119C144.53 28.8728 144.542 28.6207 144.607 28.3796C144.672 28.1385 144.787 27.9141 144.946 27.7214H145.946C166.076 27.7214 186.226 28.0914 206.346 27.5614C215.026 27.3314 223.596 23.3514 232.346 24.8914C242.906 26.7514 253.066 23.4514 263.456 23.6914C264.609 23.5238 265.731 23.1868 266.786 22.6914Z" fill="#976853"/>
    <path d="M144.999 27.6916V29.6016C142.339 31.8216 139.469 31.2816 136.559 30.2416L135.969 29.5716C138.339 26.2816 141.879 28.1516 144.999 27.6916Z" fill="#B06C40"/>
    <path d="M128 33.6408C126.18 37.6408 122.69 35.0708 120 35.6408C121.84 31.9108 125.29 34.3208 128 33.6408Z" fill="#7D4D44"/>
    <path d="M133.926 33.6193H127.926C127.856 32.2493 128.656 31.7093 129.926 31.5693C130.477 31.1033 131.162 30.8258 131.882 30.7772C132.601 30.7286 133.318 30.9116 133.926 31.2993C134.085 31.448 134.211 31.6277 134.298 31.8272C134.384 32.0267 134.429 32.2418 134.429 32.4593C134.429 32.6767 134.384 32.8919 134.298 33.0914C134.211 33.2909 134.085 33.4706 133.926 33.6193Z" fill="#7D4D44"/>
    <path d="M134.062 31.7119L129.922 31.5919C131.022 28.3319 133.862 30.1819 135.922 29.5919L136.102 29.7819C136.343 30.0695 136.481 30.4296 136.494 30.8048C136.507 31.18 136.393 31.5487 136.172 31.8519C135.861 32.0832 135.478 32.1962 135.091 32.1705C134.704 32.1448 134.34 31.9823 134.062 31.7119Z" fill="#B06C40"/>
    <path d="M544.472 256.759C530.472 256.759 516.382 257.989 502.582 256.439C489.582 254.989 476.582 254.049 463.582 253.039C455.322 252.389 447.022 252.359 438.752 252.039C423.482 251.379 408.152 251.939 392.852 251.819C384.452 251.749 376.002 250.819 367.692 251.069C330.542 252.069 293.392 251.389 256.262 252.069C245.332 252.269 234.032 252.179 223.562 256.749C220.992 257.869 218.312 256.749 215.692 256.749C192.692 256.839 169.772 256.799 146.812 256.799C144.322 256.799 141.812 257.029 139.922 254.799C166.222 254.799 192.522 254.799 218.822 254.799C222.122 254.799 224.962 254.579 226.822 251.119C228.772 247.459 233.032 248.349 235.882 248.559C240.882 248.929 245.712 247.729 250.642 247.739C316.222 247.829 381.812 247.269 447.382 248.119C466.765 248.203 486.128 249.369 505.382 251.609C517.652 253.149 529.832 255.729 542.292 255.819C543.067 256.005 543.805 256.323 544.472 256.759Z" fill="#3F251C"/>
    <path d="M711.268 43.609C695.128 43.609 678.898 44.609 662.858 43.359C640.058 41.539 617.268 40.4689 593.578 40.6589C598.888 34.3089 605.448 32.509 612.318 32.929C615.551 33.016 618.783 32.7511 621.958 32.1389C626.518 31.4589 631.228 31.7089 635.878 31.7089C663.338 31.7089 690.795 31.7089 718.248 31.7089C712.918 34.3989 706.888 33.0789 701.358 34.6389C700.118 34.9889 698.358 34.849 698.148 36.339C697.938 37.569 699.448 38.0589 700.388 38.7089C702.718 40.3289 704.998 41.959 708.088 41.649C708.759 41.5838 709.434 41.7401 710.008 42.094C710.582 42.4479 711.025 42.98 711.268 43.609Z" fill="#54211D"/>
    <path d="M813.17 31.5816C813.17 30.9616 813.1 30.3416 813.07 29.7216L823.16 29.6016C824.89 30.1316 827.45 28.6016 828.16 31.6016L813.17 31.5816Z" fill="#744745"/>
    <path d="M828.133 31.6494C830.553 32.0494 833.583 30.2394 835.133 33.6494C832.753 33.1994 829.683 35.1694 828.133 31.6494Z" fill="#744745"/>
    <path d="M835.172 33.6005C837.172 34.2105 840.172 32.0305 840.962 35.7705C839.002 35.0005 836.002 37.1705 835.172 33.6005Z" fill="#744745"/>
    <path d="M691.276 29.6805L523.496 29.5905C522.586 26.3605 525.266 26.5205 526.986 26.2005C532.701 25.1963 538.494 24.7044 544.296 24.7305C557.896 24.6305 571.496 24.7305 585.096 24.7305C587.906 24.7305 590.726 24.8005 593.406 23.7305H696.256C700.786 26.4305 705.806 25.5105 710.676 25.7305C714.296 25.9005 718.006 25.1405 721.546 26.2605V27.7005C715.756 27.7005 709.966 27.5905 704.176 27.7005C699.816 27.8405 695.206 26.6305 691.276 29.6805Z" fill="#B37257"/>
    <path d="M593.411 23.6992C591.061 25.6092 588.281 25.6992 585.411 25.6992C572.791 25.6992 560.181 25.8192 547.571 25.6492C540.081 25.5392 532.851 27.6492 525.411 27.7392C524.909 27.7311 524.425 27.9206 524.062 28.2667C523.699 28.6129 523.487 29.0879 523.471 29.5892L519.471 29.6492C516.471 27.8992 513.271 27.6492 509.941 27.6492C472.741 27.6492 435.521 27.2592 398.331 27.7992C380.701 28.0492 363.331 24.7992 345.711 25.6492C347.371 23.9692 349.491 24.6992 351.401 24.6992C386.631 24.6492 421.891 25.4792 457.091 24.4592C502.551 23.1792 548.001 24.2192 593.411 23.6992Z" fill="#AE6946"/>
    <path d="M225.997 29.7594C225.937 30.3794 225.887 30.9994 225.837 31.6194H135.867L136.047 29.7694L144.897 29.6094L225.997 29.7594Z" fill="#7D4D44"/>
    <path d="M904.997 104.162C900.884 95.3193 896.229 86.7396 891.057 78.4716C891.537 75.5916 890.197 73.5616 888.207 71.5916C881.317 64.7616 874.607 57.7516 867.107 51.5916C866.457 48.7416 864.107 47.3116 861.977 45.8216C855.685 41.2679 848.793 37.6066 841.497 34.9416C839.597 34.2716 837.377 34.7816 835.687 33.3716C835.292 33.1406 834.873 32.9528 834.437 32.8116C832.157 32.3416 829.697 32.5316 827.787 30.8116C827.308 30.607 826.804 30.4659 826.287 30.3916C821.627 30.0816 816.957 30.3216 812.287 30.2116C781.337 30.3216 750.367 30.0016 719.397 30.3916C715.397 31.2416 711.397 32.3916 707.197 32.3316C704.878 32.3963 702.581 32.8144 700.387 33.5716C696.517 34.6716 696.127 36.8416 699.197 39.4916C701 41.2372 703.298 42.3828 705.777 42.7716C707.814 43.0568 709.792 43.6644 711.637 44.5716H789.347C815.463 44.5274 840.569 54.6525 859.347 72.8016C861.477 74.6616 863.567 76.6216 865.597 78.7216C882.657 96.3216 889.597 117.612 891.517 141.102C891.989 148.207 891.461 155.343 889.947 162.302C887.796 173.137 883.848 183.537 878.267 193.072C870.934 206.686 860.579 218.44 847.997 227.432C847.207 228.252 846.397 229.052 845.667 229.922C843.987 231.922 840.297 233.542 842.077 236.642C843.617 239.312 847.137 238.192 849.867 238.002C854.247 237.692 858.507 236.302 862.947 236.602L863.057 236.992C866.008 235.353 868.704 233.291 871.057 230.872C871.957 229.402 874.277 228.312 873.237 226.282C871.907 223.702 868.777 225.352 866.347 224.412C872.657 216.772 878.347 209.282 882.877 200.902C890.767 186.242 897.807 171.302 900.947 154.782C902.237 148.022 902.867 140.842 909.637 136.552C910.737 135.852 911.047 134.322 911.007 132.942C910.677 123.002 909.387 113.362 904.997 104.162Z" fill="#45271D"/>
    <path d="M217.762 246.82C217.051 246.712 216.353 246.527 215.682 246.27H161.162C153.472 246.2 146.612 246.11 139.422 244.41C139.262 244.46 136.762 243.72 136.482 243.73C131.082 243.86 127.032 245.27 121.942 242.73C118.41 240.936 114.668 239.592 110.802 238.73C109.382 238.41 107.802 237.24 106.642 238.63C105.302 240.24 107.002 241.69 107.642 243.12C108.056 244.039 108.752 244.802 109.63 245.299C110.508 245.795 111.521 245.999 112.522 245.88C115.03 245.716 117.535 246.245 119.762 247.41C128.462 252.17 138.082 253.5 147.592 253.71C170.702 254.23 193.822 253.89 216.942 253.89C218.702 253.89 220.672 253.63 220.592 251.5C220.532 249.63 220.452 247.31 217.762 246.82Z" fill="#311D18"/>
    <path d="M161.447 45.2919H481.917C480.987 43.8919 479.177 43.3919 477.577 42.8319C470.407 40.2819 462.847 40.1819 455.407 40.1019C446.907 40.0219 438.467 39.3719 430.007 38.8419C426.847 38.6419 423.627 38.2819 421.007 36.2919C418.117 34.0819 414.847 33.2319 411.317 32.7219C390.317 29.7219 369.167 30.9319 348.097 30.3119C326.017 29.6619 303.917 30.4019 281.827 30.6319C263.027 30.8319 244.227 30.6319 225.427 30.6319C197.68 30.6319 169.927 30.6319 142.167 30.6319C140.037 30.6319 137.807 30.1919 135.867 31.5519L134.057 31.6519L133.937 33.5619C148.177 33.4519 162.357 34.5019 176.577 35.3019C192.577 36.1919 208.657 35.7819 224.577 38.5019C234.577 40.1919 244.667 40.8119 255.207 41.9719C252.977 43.9719 250.767 43.5519 248.667 43.5519C220.727 43.5519 192.777 43.7919 164.827 43.4719C150.119 43.304 135.527 46.0925 121.917 51.6719C120.137 52.3919 115.707 53.3219 115.547 55.6719C128.697 49.3719 145.877 45.3919 161.447 45.2919Z" fill="#45281E"/>
    <path d="M307.26 30.7588C332.34 29.6388 357.41 31.6388 382.49 31.7588C390.92 31.8939 399.331 32.5854 407.67 33.8288C412.35 34.4788 417.84 33.7788 421.15 38.7388C421.56 39.3688 422.95 39.4587 423.91 39.5987C432.1 40.7487 440.33 41.9187 448.61 41.5987C456.28 41.2487 463.84 42.3488 471.43 42.8788C473.474 42.9812 475.493 43.3682 477.43 44.0287H527.03C526.988 43.8576 526.958 43.6839 526.94 43.5087H561.74V42.2488C558.318 41.3998 554.828 40.8577 551.31 40.6288C535.86 39.9888 520.47 42.0188 505.04 41.6288C500.268 41.3188 495.518 40.7446 490.81 39.9088C489.54 39.7288 487.35 39.0788 487.99 37.8188C489.88 34.0988 486.62 34.2488 485.08 33.8188C479.314 32.33 473.374 31.6237 467.42 31.7188C464.92 31.7188 462.42 31.9488 460.52 29.7188L226 29.7588C225.848 29.8556 225.72 29.986 225.626 30.1399C225.532 30.2939 225.474 30.4674 225.458 30.647C225.442 30.8266 225.467 31.0076 225.531 31.1761C225.595 31.3445 225.698 31.496 225.83 31.6188C253 31.4988 280.11 31.9988 307.26 30.7588Z" fill="#55291D"/>
    <path d="M466.287 33.0698C470.947 33.2098 475.557 33.7598 480.167 34.3098C483.167 34.6698 485.997 35.2098 487.327 38.6498C488.177 40.8498 490.507 41.4398 492.667 41.8098C502.498 43.5009 512.515 43.8373 522.437 42.8098C524.787 42.5598 527.127 42.4198 529.437 42.3198C528.921 42.3977 528.414 42.5318 527.927 42.7198C527.027 43.0798 526.237 43.5698 526.177 44.6298H759.347C757.795 43.8701 756.072 43.5255 754.347 43.6298C739.977 43.7698 725.607 43.6298 711.237 43.6298C710.078 42.9648 708.763 42.6197 707.427 42.6298C685.747 40.9998 663.997 42.6998 642.197 40.2298C628.127 38.774 613.968 38.3628 599.837 38.9998C599.387 38.9998 598.897 38.8998 599.017 38.2398C601.552 36.0018 604.859 34.8396 608.237 34.9998C616.417 35.2898 624.377 33.1998 632.547 33.2798C653.177 33.4598 673.817 33.3998 694.447 33.2798C702.407 33.3154 710.36 32.7941 718.247 31.7198L813.167 31.5798C813.303 31.4621 813.41 31.3149 813.48 31.1495C813.55 30.984 813.582 30.8048 813.572 30.6254C813.562 30.446 813.512 30.2712 813.424 30.1142C813.337 29.9573 813.215 29.8224 813.067 29.7198H691.277C688.627 27.2698 685.277 28.0198 682.277 28.0298C629.567 28.1098 579.867 28.7298 527.147 29.3498C525.487 29.3498 520.767 28.2598 519.527 29.6898L460.617 29.7398C461.077 33.1598 463.997 32.9998 466.287 33.0698ZM538.537 42.1398H533.707C535.337 42.1398 536.997 42.1298 538.537 42.1398Z" fill="#67271D"/>
    <path d="M858.74 235.399C854.23 236.129 849.64 236.399 845.08 236.839C844.14 236.929 842.85 237.069 842.63 235.839C842.53 235.229 843.22 234.369 843.74 233.789C845.82 231.469 847.98 229.219 850.1 226.939C849.978 226.822 849.844 226.718 849.7 226.629C841.836 232.529 833.15 237.246 823.92 240.629C823.296 240.906 822.651 241.13 821.99 241.299C811.48 244.895 800.447 246.723 789.34 246.709H214C214.62 247.159 215.39 247.539 216 247.979C216.93 248.659 218.18 249.209 217.91 250.599C217.58 252.369 215.91 252.009 214.69 252.209C213.863 252.303 213.03 252.326 212.2 252.279C192.1 252.279 171.99 252.509 151.89 252.179C141.6 252.019 131.29 251.179 121.76 246.529C119.024 245.303 116.111 244.517 113.13 244.199C111.13 243.929 109.39 243.199 109.13 240.459C113.28 240.249 116.59 241.799 119.8 243.409C125.48 246.259 131.47 245.549 137.4 245.089C138.115 245.067 138.808 244.841 139.4 244.439C116.281 239.426 95.6613 226.442 81.1498 207.759C80.7398 207.249 80.3298 206.759 79.9498 206.189C73.8413 198.005 69.0159 188.938 65.6398 179.299C64.7998 177.619 64.8498 175.159 62.0598 175.109C62.6898 181.269 65.3698 186.759 67.7098 192.359C68.3198 193.829 69.7098 195.269 68.3798 196.939C66.7998 198.939 64.9598 197.499 63.3798 196.939C59.4698 195.529 55.7998 193.709 52.9398 190.489C50.9898 188.299 48.9398 186.189 46.0198 185.109C45.8487 186.047 45.9456 187.013 46.2994 187.898C46.6532 188.782 47.2496 189.549 48.0198 190.109C51.3068 194.764 55.9785 198.264 61.3698 200.109C67.6698 202.109 71.9098 205.999 75.2798 211.339C76.4876 213.12 77.7929 214.833 79.1898 216.469C82.3511 220.582 86.9534 223.344 92.0698 224.199C100.61 225.769 102.87 228.869 102.67 237.689C102.5 244.939 106.44 250.689 112.59 251.819C122.16 253.579 131.59 256.579 141.45 256.099C167.72 256.569 194 256.219 220.28 256.279C221.533 256.335 222.784 256.122 223.948 255.654C225.112 255.187 226.163 254.476 227.03 253.569C227.925 252.581 229.02 251.795 230.243 251.262C231.465 250.73 232.787 250.463 234.12 250.479C239.62 250.479 245.12 249.649 250.55 249.639C290.81 249.539 331.06 249.159 371.31 249.559C404.54 249.889 437.76 249.199 471.03 251.069C495.79 252.469 520.22 256.209 544.89 257.799C631.74 257.959 718.59 257.799 805.44 257.859C807.1 257.859 808.8 258.019 810.24 256.919C815.09 256.589 819.92 257.479 824.75 255.179C829.2 253.069 834.26 252.179 839.04 250.809C843.25 247.299 849.34 247.179 853.19 243.029L856.98 242.739L862.98 236.739C862 234.869 860.57 235.099 858.74 235.399Z" fill="#38221C"/>
    <path d="M17.5493 115.062L2.30928 140.722C0.761046 143.336 -0.0374576 146.325 0.00135009 149.363C0.0401578 152.4 0.914778 155.369 2.52928 157.942L19.9993 185.802C27.5675 211.926 42.3012 235.408 62.531 253.588C82.7609 271.767 107.678 283.918 134.459 288.662H134.839C184.539 289.542 234.249 289.392 283.949 289.842C413.949 291.012 543.949 290.762 673.949 290.482C690.749 290.482 707.549 290.672 724.349 290.852H779.349C795.349 290.562 811.249 289.922 827.179 288.652C829.459 286.482 832.879 288.812 835.179 286.652C836.889 284.902 839.549 286.412 841.309 284.852L843.089 284.572C844.859 282.962 847.519 284.432 849.279 282.792C851.059 283.012 851.589 280.792 853.279 280.792C854.759 278.792 857.649 280.692 859.099 278.662L869.229 274.942C870.089 274.302 870.879 273.502 872.099 273.722C872.719 273.567 873.329 273.38 873.929 273.162C876.823 271.582 879.649 269.915 882.409 268.162L883.899 267.092C897.386 257.724 909.43 246.435 919.649 233.582C921.009 231.582 921.529 228.922 923.949 227.652C924.239 227.412 924.509 227.172 924.769 226.912C925.589 225.699 926.389 224.479 927.169 223.252C927.475 222.54 927.742 221.812 927.969 221.072C928.639 219.242 927.969 216.912 929.969 215.592C932.649 213.742 933.969 210.902 934.969 208.032C936.169 204.842 937.119 201.572 938.899 198.642C940.102 196.699 940.736 194.457 940.729 192.172C940.646 191.673 940.404 191.213 940.039 190.862C937.289 189.982 935.919 191.862 935.039 193.772C932.909 198.262 929.759 202.162 927.819 206.772C923.119 217.862 914.969 226.772 908.619 236.842C907.709 238.233 906.367 239.287 904.799 239.842C901.269 241.842 898.799 244.992 896.009 247.732C890.31 253.228 883.972 258.019 877.129 262.002C866.699 267.822 856.029 273.092 844.399 276.122C829.799 280.002 814.999 283.002 799.809 283.002C735.589 283.002 671.369 283.002 607.149 283.002C542.759 283.002 478.369 283.472 413.989 282.872C349.839 282.282 285.389 288.622 221.239 284.992C193.539 283.432 169.609 284.992 141.829 284.992C138.999 284.992 132.539 280.992 129.739 280.432C117.422 277.632 105.36 273.809 93.6793 269.002C84.5793 264.242 76.3093 258.222 67.9293 252.362C60.8024 247.294 54.5014 241.154 49.2493 234.162C48.94 233.385 48.5189 232.657 47.9993 232.002C34.5093 216.642 27.1693 198.152 20.8293 179.142C16.6193 170.902 11.5393 163.142 6.70928 155.312C5.51928 153.372 3.52928 151.852 3.60928 149.262C3.70928 146.872 4.97928 144.992 6.05928 142.932C10.2393 134.932 16.5893 128.132 19.0593 119.232C19.8393 116.712 18.8693 113.812 20.7493 111.542C21.0685 110.853 21.2712 110.117 21.3493 109.362C21.4848 108.084 21.345 106.791 20.9393 105.572C20.8493 105.422 20.7793 105.272 20.6993 105.112C21.4228 104.713 22.0587 104.172 22.5693 103.522C22.797 103.155 22.9721 102.758 23.0893 102.342C23.3893 100.612 23.4693 98.7919 24.9993 97.5419C26.084 96.0759 26.9031 94.431 27.4193 92.6819C33.4793 75.5819 44.8393 61.9019 56.3293 48.3019C58.2168 46.1111 60.2731 44.0715 62.4793 42.2019C63.5693 40.9719 65.2793 40.8419 66.5493 39.9319C75.4172 31.9863 85.4037 25.3859 96.1893 20.3419C98.8593 18.8319 102.189 18.8419 104.479 16.4219C106.199 14.5519 108.549 15.3119 110.629 14.9319C114.103 14.1935 117.532 13.2587 120.899 12.1319C133.119 7.94192 145.999 9.00192 158.579 7.65192C170.419 6.37192 182.479 7.65192 194.439 7.23192C196.599 7.23192 198.759 7.23192 200.919 7.23192C259.479 7.23192 318.033 7.23192 376.579 7.23192C379.309 7.23192 382.299 8.07192 384.639 5.74192C385.639 2.62192 388.219 3.91192 390.109 3.90192C425.949 3.82192 461.789 3.90192 497.639 3.78192C502.149 3.78192 506.639 2.98192 511.169 2.56192L511.119 1.69192H500.219C498.779 0.161918 496.899 0.351917 495.079 0.291917C490.249 0.121917 485.469 0.831917 480.649 0.831917C368.649 0.785251 256.629 0.785251 144.589 0.831917C114.073 4.04302 85.3539 16.8201 62.5369 37.3363C39.7199 57.8526 23.9736 85.0576 17.5493 115.062Z" fill="#1B1310"/>
    <path d="M804.079 7C835.82 7.00305 866.596 17.9099 891.256 37.8945C915.915 57.8791 932.961 85.7284 939.539 116.78L939.779 117.92L940.369 118.92L955.429 144.29C956.331 145.792 956.797 147.515 956.776 149.267C956.755 151.019 956.247 152.73 955.309 154.21L937.999 181.75L937.469 182.6L937.199 183.6C928.934 212.181 911.743 237.368 888.139 255.48C864.045 274.013 834.477 284.017 804.079 283.92H158.809C128.642 283.784 99.3611 273.708 75.4993 255.25C52.1048 237.215 35.0415 212.217 26.7693 183.86L26.4993 182.86L25.9693 182.03L8.45928 154.21C7.52241 152.73 7.01426 151.02 6.99131 149.268C6.96836 147.517 7.43151 145.794 8.32928 144.29L23.5693 118.63L24.1493 117.63L24.3893 116.5C30.9638 85.6278 47.9003 57.9331 72.3864 38.0146C96.8726 18.096 127.435 7.15211 158.999 7H803.999M803.999 0H158.999C125.838 0.183832 93.7354 11.6921 68.01 32.618C42.2847 53.5438 24.4811 82.6311 17.5493 115.06L2.30928 140.72C0.761046 143.334 -0.0374576 146.323 0.00135009 149.361C0.0401578 152.398 0.914778 155.367 2.52928 157.94L19.9993 185.8C28.7156 215.928 46.9338 242.433 71.9387 261.365C96.9436 280.297 127.397 290.643 158.759 290.86H804.079C835.67 290.856 866.401 280.572 891.63 261.561C916.86 242.55 935.217 215.845 943.929 185.48L961.239 157.94C962.855 155.367 963.73 152.398 963.767 149.36C963.804 146.321 963.002 143.332 961.449 140.72L946.389 115.34C939.481 82.7164 921.574 53.4565 895.667 32.4595C869.76 11.4625 837.426 0.00312041 804.079 0L803.999 0Z" fill="#1E1713"/>
    <path d="M63.4891 174.57C63.2634 172.962 62.9564 171.366 62.5691 169.79C61.7791 164.02 59.2391 158.56 59.4791 152.61C59.3291 147.97 59.8191 143.3 59.0391 138.7C57.9191 132.17 59.2291 125.85 60.4591 119.51C62.7591 107.63 68.9491 97.8096 76.2091 88.3296C83.2491 79.1196 91.1491 70.9996 100.999 64.9396L101.479 64.6396C118.756 51.6108 139.781 44.5148 161.419 44.4096H253.619C254.719 44.0196 255.619 43.4096 255.519 42.0096C255.349 40.2496 253.289 40.2896 251.869 40.1096C236.199 38.1096 220.529 35.5696 204.869 34.5196C186.869 33.2996 168.719 33.3796 150.659 32.2896C145.189 31.9596 139.659 32.2896 134.189 32.2296C132.009 32.2796 129.829 32.2896 127.949 33.6396C125.679 35.8496 122.229 33.4696 119.949 35.6396C114.949 36.7296 111.099 40.5796 106.049 41.6396C101.299 46.2296 94.4491 46.9696 89.2591 50.7396C80.6491 60.8596 69.4791 68.2296 60.1591 77.5796C58.6491 79.4496 57.5691 81.5796 56.0991 83.5796L53.9991 87.3996C51.9991 89.6996 51.6191 92.8096 49.8291 95.1996C48.7953 97.1077 48.1816 99.2148 48.0291 101.38C47.3745 102.237 46.9756 103.261 46.8783 104.335C46.781 105.409 46.9892 106.489 47.4791 107.45C48.9691 110.86 47.6091 113.57 45.8291 116.19C44.6391 117.94 43.2791 119.59 42.0391 121.32C37.5691 129.03 38.3391 137.99 36.0391 146.22C37.9491 155.13 37.4891 164.48 40.4091 173.12C41.7891 177.19 42.9191 181.68 45.9891 185.12C50.4391 190.28 54.9891 195.29 61.6391 197.75C63.9291 198.6 66.3991 200.01 68.6391 197.92C70.8791 195.83 69.4491 193.34 68.5391 191.06C66.4391 185.69 63.7791 180.5 63.4891 174.57Z" fill="#301E1A"/>
    <path d="M61.2672 148.211C61.2672 147.781 61.2672 147.351 61.2672 146.921C61.2672 146.491 61.2672 145.811 61.2672 145.251C61.2554 128.718 65.3133 112.437 73.0828 97.8429C80.8523 83.2492 92.0944 70.7922 105.817 61.5713C105.167 60.7713 103.577 61.5713 103.087 61.8913C94.9972 67.5213 86.4772 72.6113 80.4772 80.7113C76.8672 85.5913 73.3472 90.5513 69.4772 95.2513C62.3772 104.001 60.2572 114.531 57.9972 125.141C56.0572 134.221 58.8972 143.141 58.0672 152.201C58.6728 153.359 59.0143 154.636 59.0672 155.941L60.2872 176.051L71.8272 198.051L77.9972 206.001L96.9172 230.001L99.0172 226.861C87.2281 217.423 77.7137 205.453 71.179 191.838C64.6442 178.224 61.2567 163.313 61.2672 148.211Z" fill="#4B2D22"/>
    <path d="M639.667 47.1497H624.717C623.877 42.8997 629.467 43.7397 631.717 42.0697C631.407 41.5714 630.957 41.1751 630.424 40.9298C629.891 40.6845 629.297 40.601 628.717 40.6897C615.417 40.8997 602.847 37.8697 590.157 35.3997C580.077 33.3997 570.017 34.3997 559.957 35.3997C557.696 35.646 555.499 36.307 553.477 37.3497C547.347 40.4297 540.477 41.5997 532.747 42.3497C535.227 43.2397 537.427 42.8997 539.447 43.2697C542.057 43.7497 544.447 44.4697 542.667 47.1797H530.667C528.907 45.5197 526.517 45.1797 523.937 45.1797C522.118 45.2583 520.295 45.1914 518.487 44.9797C516.577 44.6797 514.827 43.9797 514.687 42.3697C514.547 40.7597 516.437 40.3697 518.037 39.9997C519.468 39.7803 520.87 39.4013 522.217 38.8697C519.807 35.2897 520.217 34.4997 525.217 33.1797C530.687 31.7397 536.467 31.6097 542.637 30.8297C537.509 31.2743 532.356 31.3479 527.217 31.0497C525.527 30.9897 522.837 31.2097 523.707 28.6297L532.707 28.5197C534.637 27.1997 537.017 27.3097 539.327 27.3097C567.187 27.3097 595.054 27.3097 622.927 27.3097C625.227 27.3097 627.607 26.5997 629.567 27.8797C634.237 27.9297 638.897 27.8297 643.567 27.8797C643.567 28.3697 643.567 29.6097 643.567 30.0997C641.667 31.6097 639.197 31.0997 636.917 31.2297C627.517 31.2297 618.117 31.2297 608.667 31.4497C619.857 32.6597 630.417 35.6797 641.267 37.7697C647.207 38.9097 653.467 40.0297 659.807 39.9297C662.747 39.9997 665.677 39.8297 668.607 40.0797C669.478 40.1609 670.303 40.5103 670.967 41.0797C672.247 43.8797 670.557 44.8297 667.177 44.9097C660.587 45.0597 654.007 45.4297 647.407 45.3397C644.647 45.2897 641.747 45.2297 639.667 47.1497Z" fill="#B84E27"/>
    <path d="M459.781 28.59L469.001 28.5L497.861 28.55C500.411 29.94 503.321 29.09 506.051 29.34C507.441 29.47 509.401 29 509.751 30.52C510.061 31.84 508.331 32.39 507.081 33C504.571 34.23 501.401 34.36 498.561 36.08C503.901 37.94 503.561 41.33 502.831 44.81C498.051 45.7 493.221 45.12 488.411 45.19C487.328 45.206 486.25 45.0576 485.211 44.75C483.776 44.0165 482.193 43.6166 480.581 43.58C477.971 43.64 475.641 43.28 474.721 40.92C474.301 39.83 472.971 39.44 471.641 39.19C470.311 38.94 468.991 38.95 467.731 38.65C465.621 38.16 462.631 38.37 462.391 35.98C462.181 33.9 464.791 33.46 466.641 32.68C467.641 32.26 468.881 32.23 469.641 31.48C466.531 30.11 461.421 33 459.781 28.59Z" fill="#913420"/>
    <path d="M503.806 44.1008C502.996 42.5308 500.946 42.6208 499.296 42.3008C499.346 40.4808 502.686 41.1508 502.296 39.5908C501.906 38.0308 499.866 38.1608 498.416 37.6808C497.546 37.4008 496.346 37.2308 496.256 36.3208C496.146 35.1808 497.466 34.8808 498.486 34.5408C502.026 33.3608 505.996 32.9008 509.316 30.7408C505.516 28.9508 500.676 31.8608 497.786 28.5508L523.736 28.6208C524.316 30.7408 526.526 30.0608 528.176 30.0808C534.056 30.1508 539.936 30.0808 545.856 30.5008C541.346 32.6608 536.126 32.1708 531.356 33.1908C529.616 33.5708 527.726 33.5908 526.066 34.0908C524.406 34.5908 521.846 34.3208 521.476 35.9008C521.106 37.4808 524.066 37.4508 525.136 38.5708C523.296 40.4708 520.656 40.7208 518.046 41.0008C516.906 41.1308 515.426 41.0808 515.486 42.2808C515.486 43.2308 516.736 43.9008 517.906 43.9708C520.906 44.1208 523.906 44.1408 526.906 44.1108C529.616 44.1108 530.956 44.9908 530.756 47.1108H516.756C514.564 45.7271 512.008 45.0306 509.416 45.1108C507.476 45.1308 505.376 45.4108 503.806 44.1008Z" fill="#A53D26"/>
    <path d="M447.847 44.1398H432.847C431.757 42.3298 429.637 42.5698 427.677 42.6098C421.65 42.8208 415.632 42.0093 409.877 40.2098C404.117 38.3998 397.317 38.5998 390.967 37.9398C388.197 37.6498 385.417 37.3798 382.637 37.1598C380.997 36.9998 378.997 36.9998 378.517 35.5998C378.037 34.1998 380.357 34.0798 381.427 33.3898L383.067 32.2698C378.447 30.4098 373.787 30.3398 369.157 30.0798C366.677 29.9398 363.707 30.9898 361.977 28.5898H413.897C416.337 29.8298 419.077 29.1998 421.697 29.3398C426.877 29.6198 427.827 30.3898 426.967 34.3398C426.647 35.8298 427.677 36.2798 428.967 36.4598C435.967 37.4598 442.967 38.5798 449.407 41.1698C451.987 42.1698 455.347 41.2798 458.307 41.6498C461.267 42.0198 461.537 42.3898 461.077 44.6498C456.657 45.0798 452.207 45.2498 447.847 44.1398Z" fill="#602A1C"/>
    <path d="M461.867 44.0898C461.367 43.3798 460.627 42.5598 459.657 42.6998C448.657 44.3298 439.907 37.7698 429.277 37.6998C424.167 37.6998 423.547 36.2198 426.377 33.2998C427.747 31.8698 427.297 31.3598 425.377 30.8598C423.319 30.2968 421.19 30.0374 419.057 30.0898C417.057 30.1598 414.977 30.3798 413.867 28.5898H459.747C461.197 30.6398 463.747 30.0398 465.967 30.0998C468.367 30.0998 470.767 30.0998 474.037 30.0998C471.707 32.8098 468.637 32.7998 466.347 33.8098C465.117 34.3598 463.117 34.4698 463.097 35.8698C463.097 37.6198 465.327 37.0598 466.567 37.3598C468.747 37.8798 471.057 38.0498 473.287 38.4598C475.057 38.7798 476.837 38.9998 476.347 41.1698C475.857 43.3398 478.257 42.2898 479.457 42.5498C481.297 42.9398 483.987 41.5498 484.797 44.0998C477.286 46.1161 469.376 46.1126 461.867 44.0898Z" fill="#722C1E"/>
    <path d="M673.62 30.1289H689.56H709.56C720.87 34.7089 731.37 40.8689 744.91 41.1289C745.72 41.2183 746.516 41.4064 747.28 41.6889C748.45 42.0189 750.28 42.0189 749.85 43.4589C749.5 44.5889 747.85 44.1389 746.85 44.1389C733.74 44.1389 720.63 44.1389 707.53 44.1389C704.31 42.2689 700.62 41.9489 696.76 42.1389C694.797 42.2987 692.822 42.14 690.91 41.6689C688.13 40.0489 684.91 40.6689 681.77 40.5189C680.14 40.4289 678.16 40.5789 677.44 39.1589C676.72 37.7389 678.5 37.1589 679.62 36.4489C681.97 34.9589 680.22 34.4489 678.62 33.7689C676.62 32.8189 673.51 32.8389 673.62 30.1289Z" fill="#682A1F"/>
    <path d="M690.58 40.9983C693.88 40.9983 697.2 41.2183 700.47 40.9983C703.95 40.7383 706.14 41.7583 707.47 44.1383C700.81 44.1383 693.97 43.4283 687.54 44.3783C679.54 45.5583 671.54 45.5983 663.54 45.7783C662.35 45.7783 660.85 44.4483 660.7 45.3283C656.41 47.1483 651.79 46.6183 647.41 45.3283C644.41 45.2383 642.63 47.2383 639.65 47.1483C639.36 44.3283 641.65 44.1483 644.43 44.1483C651.85 44.1483 659.27 44.0483 666.69 44.1483C669.69 44.1483 670.97 43.3483 670.56 41.0283C670.964 40.6601 671.437 40.3766 671.953 40.1946C672.468 40.0125 673.014 39.9356 673.56 39.9683C679.26 40.5483 685.06 39.4583 690.58 40.9983Z" fill="#913820"/>
    <path d="M690.582 40.9998H670.582H668.582C665.862 39.3998 662.582 40.7098 659.742 39.9998C654.081 37.7665 648.27 35.9352 642.351 34.5198C639.651 33.8098 636.462 33.1898 636.632 30.0898H643.572H673.572C674.932 32.2398 678.012 32.0898 680.202 33.0898C681.412 33.6498 683.341 33.7398 683.301 35.2098C683.301 36.4498 681.532 36.5498 680.492 37.1098C679.622 37.5798 678.222 37.6098 678.072 39.4198C680.972 39.4198 683.832 39.4198 686.702 39.4198C688.322 39.4798 690.212 39.1098 690.582 40.9998Z" fill="#7E3121"/>
    <path d="M542.709 47.1483C542.959 43.5683 539.629 44.2083 536.879 44.1483C534.129 44.0883 530.879 44.7983 530.539 41.2083C539.539 41.2083 547.179 38.2083 555.269 35.6883C566.409 32.1783 578.559 32.3483 590.389 34.3783C599.219 35.8883 607.929 37.8283 616.759 39.2983C619.89 39.7005 623.057 39.7475 626.199 39.4383C629.365 39.33 632.501 40.0762 635.279 41.5983C632.909 45.1083 625.859 42.6583 624.719 47.1883H608.719C606.789 44.6783 610.349 44.0183 611.509 42.4183C608.886 41.1096 605.979 40.4706 603.049 40.5583C590.609 40.5583 578.169 40.5583 565.729 40.5583C564.899 40.5583 564.069 40.5583 563.249 40.6883C558.739 41.1983 558.379 41.6883 559.449 45.0683C559.579 45.4599 559.57 45.8841 559.424 46.27C559.279 46.6559 559.005 46.9801 558.649 47.1883L542.709 47.1483Z" fill="#CA602B"/>
    <path d="M558.673 47.1617C558.753 45.8717 558.963 44.6117 557.033 43.8217C556.033 43.4017 554.033 43.3417 554.543 41.8917C554.903 40.8917 556.603 41.2917 557.543 40.8917C561.213 39.2617 565.183 39.4417 569.153 39.4517C579.613 39.4517 590.093 39.6817 600.533 39.3617C605.153 39.2217 609.183 40.5717 613.533 41.1317C613.824 41.1669 614.104 41.2657 614.353 41.4213C614.602 41.5768 614.813 41.7852 614.973 42.0317C615.213 42.7617 614.353 43.1317 613.583 43.3817C611.293 44.1317 608.733 44.6417 608.783 47.1717L558.673 47.1617Z" fill="#DE7431"/>
    <path d="M636.652 30.1211C638.082 32.4311 640.862 33.1711 643.652 33.9411C649.142 35.4511 655.122 36.1211 659.572 39.4411C659.706 39.5207 659.818 39.634 659.896 39.7699C659.973 39.9058 660.014 40.0596 660.014 40.2161C660.014 40.3726 659.973 40.5264 659.896 40.6623C659.818 40.7982 659.706 40.9115 659.572 40.9911C651.192 40.2911 642.792 39.6611 634.742 37.5411C626.692 35.4211 618.742 33.5411 610.242 33.1211C608.022 32.9911 606.002 32.0311 603.352 30.1211H636.652Z" fill="#913928"/>
    <path d="M790.656 247H161.156C147.914 246.981 134.804 244.354 122.577 239.269C110.35 234.184 99.2443 226.74 89.8939 217.363C71.0099 198.424 60.4226 172.76 60.461 146.015C60.4995 119.271 71.1606 93.6372 90.0989 74.7532C109.037 55.8693 134.702 45.282 161.446 45.3204H790.656C803.899 45.3204 817.011 47.9287 829.246 52.9964C841.48 58.0641 852.597 65.4919 861.961 74.8558C871.325 84.2196 878.752 95.3361 883.82 107.571C888.888 119.805 891.496 132.918 891.496 146.16C891.496 159.403 888.888 172.516 883.82 184.75C878.752 196.985 871.325 208.101 861.961 217.465C852.597 226.829 841.48 234.257 829.246 239.324C817.011 244.392 803.899 247 790.656 247Z" stroke="#1E1713" stroke-width="4" stroke-linecap="round" stroke-linejoin="round"/>
    <defs>
        <radialGradient id="paint0_radial_2931_6029" cx="0" cy="0" r="1" gradientUnits="userSpaceOnUse" gradientTransform="translate(509.636 44.0891) rotate(180) scale(636.96 248.414)">
            <stop offset="0.38" stop-color="#FFA5D3"/>
            <stop offset="0.65" stop-color="#AE3CE7"/>
            <stop offset="0.77" stop-color="#8112D0"/>
        </radialGradient>
    </defs>
</svg>
